<?xml version="1.0" encoding="UTF-8"?>
<svg id="Layer_1" data-name="Layer 1" xmlns="http://www.w3.org/2000/svg" viewBox="330 390 660 140">
  <defs>
    <style>
      .cls-1 {
        fill: #00243c;
      }

      .cls-2 {
        fill: #b5b7bb;
      }

      .cls-3 {
        fill: #00ccfe;
      }

      .cls-4 {
        fill: #0097fd;
      }
    </style>
  </defs>
  <path class="cls-2" d="M359.31,482.51c-5.73-3.03-10.24-7.36-13.55-12.99-3.31-5.63-4.97-12.14-4.97-19.52s1.66-13.89,4.97-19.52c3.31-5.63,7.83-9.96,13.55-12.99,5.73-3.03,12.14-4.54,19.24-4.54s13.56,1.52,19.38,4.54c5.82,3.03,10.39,7.36,13.7,12.99,3.31,5.63,4.97,12.14,4.97,19.52s-1.66,13.89-4.97,19.52c-3.31,5.63-7.88,9.96-13.7,12.99-5.82,3.03-12.28,4.54-19.38,4.54s-13.51-1.52-19.24-4.54M389.54,469.73c3.27-1.8,5.84-4.42,7.74-7.88,1.89-3.45,2.84-7.4,2.84-11.85s-.95-8.4-2.84-11.85c-1.89-3.45-4.47-6.08-7.74-7.88-3.26-1.8-6.88-2.7-10.86-2.7s-7.71.9-10.93,2.7c-3.22,1.8-5.8,4.42-7.74,7.88-1.94,3.46-2.91,7.41-2.91,11.85s.97,8.4,2.91,11.85c1.94,3.46,4.52,6.08,7.74,7.88,3.22,1.8,6.81,2.7,10.79,2.7s7.74-.9,11-2.7M401.97,456.25l14.62-6.25v35.49h-11.64l-2.98-29.24Z"/>
  <path class="cls-2" d="M440.15,482.51c-5.77-3.03-10.31-7.36-13.63-12.99-3.31-5.63-4.97-12.14-4.97-19.52s1.66-13.89,4.97-19.52c3.31-5.63,7.85-9.96,13.63-12.99,5.77-3.03,12.21-4.54,19.31-4.54s13.51,1.52,19.23,4.54c5.72,3.03,10.27,7.36,13.63,12.99,3.36,5.63,5.04,12.14,5.04,19.52s-1.68,13.89-5.04,19.52c-3.36,5.63-7.9,9.96-13.63,12.99-5.73,3.03-12.14,4.54-19.23,4.54s-13.53-1.52-19.31-4.54M470.39,469.73c3.31-1.8,5.89-4.42,7.74-7.88,1.85-3.45,2.77-7.4,2.77-11.85s-.92-8.4-2.77-11.85c-1.85-3.45-4.4-6.08-7.67-7.88-3.26-1.8-6.93-2.7-11-2.7s-7.74.9-11,2.7c-3.27,1.8-5.85,4.42-7.74,7.88-1.89,3.46-2.84,7.41-2.84,11.85s.95,8.4,2.84,11.85c1.89,3.46,4.47,6.08,7.74,7.88,3.26,1.8,6.88,2.7,10.86,2.7s7.76-.9,11.07-2.7M481.03,450l-.28-13.91v-53.09h16.61v67h-16.33Z"/>
  <path class="cls-1" d="M649.73,417.49c5.72,3.03,10.24,7.36,13.56,12.99,3.31,5.63,4.97,12.14,4.97,19.52s-1.66,13.89-4.97,19.52c-3.31,5.63-7.83,9.96-13.56,12.99-5.73,3.03-12.14,4.54-19.23,4.54s-13.53-1.52-19.3-4.54c-5.77-3.03-10.32-7.36-13.63-12.99-3.31-5.63-4.97-12.14-4.97-19.52s1.66-13.89,4.97-19.52c3.31-5.63,7.85-9.96,13.63-12.99,5.77-3.03,12.21-4.54,19.3-4.54s13.51,1.52,19.23,4.54M608.92,450l.14,13.91v53.09h-16.47v-67h16.33ZM619.5,430.27c-3.27,1.8-5.84,4.42-7.74,7.88-1.89,3.46-2.84,7.41-2.84,11.85s.94,8.4,2.84,11.85c1.89,3.46,4.47,6.08,7.74,7.88,3.26,1.8,6.88,2.7,10.86,2.7s7.76-.9,11.07-2.7c3.31-1.8,5.91-4.42,7.81-7.88,1.89-3.45,2.84-7.4,2.84-11.85s-.95-8.4-2.84-11.85c-1.89-3.45-4.47-6.08-7.74-7.88-3.26-1.8-6.93-2.7-11-2.7s-7.74.9-11,2.7"/>
  <path class="cls-1" d="M692.03,482.51c-5.73-3.03-10.24-7.36-13.55-12.99-3.31-5.63-4.97-12.14-4.97-19.52s1.66-13.89,4.97-19.52c3.31-5.63,7.83-9.96,13.55-12.99,5.73-3.03,12.14-4.54,19.23-4.54s13.56,1.52,19.38,4.54c5.82,3.03,10.39,7.36,13.7,12.99,3.31,5.63,4.97,12.14,4.97,19.52s-1.66,13.89-4.97,19.52c-3.31,5.63-7.88,9.96-13.7,12.99-5.82,3.03-12.28,4.54-19.38,4.54s-13.51-1.52-19.23-4.54M722.27,469.73c3.27-1.8,5.84-4.42,7.74-7.88,1.89-3.45,2.84-7.4,2.84-11.85s-.95-8.4-2.84-11.85c-1.89-3.45-4.47-6.08-7.74-7.88-3.26-1.8-6.88-2.7-10.86-2.7s-7.71.9-10.93,2.7c-3.22,1.8-5.8,4.42-7.74,7.88-1.94,3.46-2.91,7.41-2.91,11.85s.97,8.4,2.91,11.85c1.94,3.46,4.52,6.08,7.74,7.88,3.22,1.8,6.81,2.7,10.79,2.7s7.74-.9,11-2.7M734.69,456.25l14.62-6.25v35.49h-11.64l-2.98-29.24Z"/>
  <path class="cls-1" d="M772.8,482.43c-5.73-2.98-10.24-7.26-13.56-12.85-3.31-5.58-4.97-12.11-4.97-19.59s1.66-14,4.97-19.59c3.31-5.58,7.83-9.87,13.56-12.85,5.73-2.98,12.14-4.47,19.23-4.47v15.05c-3.97,0-7.57.88-10.79,2.63-3.22,1.75-5.77,4.28-7.67,7.59-1.89,3.31-2.84,7.19-2.84,11.64s.94,8.33,2.84,11.64c1.89,3.31,4.45,5.84,7.67,7.59,3.22,1.75,6.81,2.63,10.79,2.63v15.05c-7.1,0-13.51-1.49-19.23-4.47M792.04,413.09h25.12v15.05h-25.12v-15.05ZM792.04,471.86h25.12v15.05h-25.12v-15.05Z"/>
  <path class="cls-1" d="M533.77,480.66c5.31,4.18,12.45,6.3,21.23,6.3s15.94-2.17,21.3-6.44c5.31-4.24,8.01-9.75,8.01-16.36,0-4.61-.98-8.45-2.92-11.4-1.93-2.95-4.4-5.02-7.33-6.15-3.01-1.17-6.3-2.03-9.78-2.57-3.54-.54-6.84-1.05-9.89-1.52-3.11-.48-5.75-1.25-7.84-2.29-2.26-1.12-3.41-2.75-3.41-4.84,0-2.6,1.08-4.7,3.21-6.25,2.07-1.5,5.03-2.27,8.8-2.27,3.38,0,6.14.71,8.21,2.13,1.96,1.34,3.11,3.1,3.44,5.24h15.89c-.34-5.97-2.95-11-7.77-14.97-5.02-4.13-11.77-6.22-20.06-6.22s-15.21,2.14-20.27,6.36c-5.03,4.2-7.59,9.68-7.59,16.3,0,4.58.99,8.38,2.93,11.3,1.94,2.91,4.42,4.95,7.37,6.06,3.02,1.13,6.32,1.97,9.81,2.48l9.89,1.45c3.11.46,5.74,1.21,7.8,2.25,2.23,1.12,3.37,2.78,3.37,4.94,0,5.95-4.53,8.97-13.46,8.97-8.14,0-12.51-2.67-12.99-7.95h-16.15c.34,6.25,3.09,11.45,8.2,15.47Z"/>
  <g>
    <polygon class="cls-3" points="959.21 411.62 919.71 425.42 919.71 472.58 959.21 457.4 959.21 411.62"/>
    <polygon class="cls-4" points="946.64 427.36 907.13 441.17 907.13 488.32 946.64 473.15 946.64 427.36"/>
  </g>
  <path class="cls-1" d="M860.05,413.09c-21.88,0-37.76,15.52-37.76,36.91s15.88,36.91,37.76,36.91h33.08v-15.13h-33.08c-10.46,0-18.01-5.89-20.2-15.76l-.03-.15h57.72v-5.86c0-21.39-15.76-36.91-37.48-36.91ZM840.23,442.58l.05-.16c2.64-9.02,9.84-14.19,19.78-14.19s17.22,5.3,19.78,14.19l.05.16h-39.64Z"/>
</svg>